HIERARCHY
ROOT Hips
{
	OFFSET 0.00000 0.00000 0.00000
	CHANNELS 6 Xposition Yposition Zposition Zrotation Yrotation Xrotation 
	JOINT LHipJoint
	{
		OFFSET 0 0 0
		CHANNELS 3 Zrotation Yrotation Xrotation
		JOINT LeftHip
		{
			OFFSET 2.36090 -1.39315 1.24752
			CHANNELS 3 Zrotation Yrotation Xrotation
			JOINT LeftKnee
			{
				OFFSET 2.06810 -5.68207 0.00000
				CHANNELS 3 Zrotation Yrotation Xrotation
				JOINT LeftAnkle
				{
					OFFSET 2.46631 -6.77613 0.00000
					CHANNELS 3 Zrotation Yrotation Xrotation
					JOINT LeftToe
					{
						OFFSET 0.26031 -0.71520 1.99545
						CHANNELS 3 Zrotation Yrotation Xrotation
						End Site
						{
							OFFSET 0.00000 -0.00000 1.05957
						}
					}
				}
			}
		}
	}
	JOINT RHipJoint
	{
		OFFSET 0 0 0
		CHANNELS 3 Zrotation Yrotation Xrotation
		JOINT RightHip
		{
			OFFSET -2.25243 -1.39315 1.24752
			CHANNELS 3 Zrotation Yrotation Xrotation
			JOINT RightKnee
			{
				OFFSET -2.17343 -5.97145 0.00000
				CHANNELS 3 Zrotation Yrotation Xrotation
				JOINT RightAnkle
				{
					OFFSET -2.52372 -6.93386 0.00000
					CHANNELS 3 Zrotation Yrotation Xrotation
					JOINT RightToe
					{
						OFFSET -0.22538 -0.61923 2.11447
						CHANNELS 3 Zrotation Yrotation Xrotation
						End Site
						{
							OFFSET -0.00000 -0.00000 1.10506
						}
					}
				}
			}
		}
	}
	JOINT lowerback
	{
		OFFSET 0 0 0
		CHANNELS 3 Zrotation Yrotation Xrotation
		JOINT Chest
		{
			OFFSET 0.01594 2.13103 0.08007
			CHANNELS 3 Zrotation Yrotation Xrotation
			JOINT Chest2
			{
				OFFSET 0.01393 2.09723 0.18338
				CHANNELS 3 Zrotation Yrotation Xrotation
				JOINT lowerneck
				{
					OFFSET 0 0 0
					CHANNELS 3 Zrotation Yrotation Xrotation
					JOINT Neck
					{
						OFFSET 0.05351 1.38915 0.32494
						CHANNELS 3 Zrotation Yrotation Xrotation
						JOINT Head
						{
							OFFSET 0.00711 1.45992 -0.21666
							CHANNELS 3 Zrotation Yrotation Xrotation
							End Site
							{
								OFFSET -0.00433 1.47702 -0.11056
							}
						}
					}
				}
				JOINT LeftCollar
				{
					OFFSET 0 0 0
					CHANNELS 3 Zrotation Yrotation Xrotation
					JOINT LeftShoulder
					{
						OFFSET 2.87198 0.92249 0.11132
CHANNELS 3 Zrotation Xrotation Yrotation
						JOINT LeftElbow
						{
OFFSET 0 -5.527310 0.000000
CHANNELS 3 Zrotation Xrotation Yrotation
							JOINT LeftWrist
							{
OFFSET 0 -3.110590 0.000000
CHANNELS 3 Zrotation Xrotation Yrotation
								JOINT lhand
								{
									OFFSET 0 0 0
CHANNELS 3 Zrotation Xrotation Yrotation
									JOINT LFingers
									{
OFFSET 0 -0.419630 0.000000
CHANNELS 3 Zrotation Xrotation Yrotation
										End Site
										{
OFFSET 0 -0.338310 0.000000
										}
									}
								}
								JOINT LThumb
								{
OFFSET 0 0.000000 0.000000
CHANNELS 3 Zrotation Xrotation Yrotation
									End Site
									{
OFFSET 0 -0.343480 0.343480
									}
								}
							}
						}
					}
				}
				JOINT RightCollar
				{
					OFFSET 0 0 0
					CHANNELS 3 Zrotation Yrotation Xrotation
					JOINT RightShoulder
					{
						OFFSET -2.94710 0.68072 0.32187
CHANNELS 3 Zrotation Xrotation Yrotation
						JOINT RightElbow
						{
OFFSET 0 -5.253960 -0.000000
CHANNELS 3 Zrotation Xrotation Yrotation
							JOINT RightWrist
							{
OFFSET 0 -3.105670 0.000000
CHANNELS 3 Zrotation Xrotation Yrotation
								JOINT rhand
								{
									OFFSET 0 0 0
CHANNELS 3 Zrotation Xrotation Yrotation
									JOINT RFingers
									{
OFFSET 0 -0.498680 0.000000
CHANNELS 3 Zrotation Xrotation Yrotation
										End Site
										{
OFFSET 0 -0.402040 0.000000
										}
									}
								}
								JOINT RThumb
								{
OFFSET 0 0.000000 0.000000
CHANNELS 3 Zrotation Xrotation Yrotation
									End Site
									{
OFFSET 0 -0.408180 0.408180
									}
								}
							}
						}
					}
				}
			}
		}
	}
}
MOTION
Frames: 8
Frame Time: 0.008333333333333333
5.105796 15.750529 28.020401 -162.206811 -87.621686 -179.182149 0.000000 0.000000 0.000000 0.000000 0.000000 0.000000 0.000000 0.000000 0.000000 0.000000 0.000000 0.000000 0.000000 0.000000 0.000000 0.000000 0.000000 0.000000 19.683755 26.925903 -17.619781 -2.081718 -9.034308 25.902611 -0.416914 -10.553721 -20.221229 -0.020329 0.921012 -2.531576 -1.654498 1.086665 -29.603207 0.668997 1.356936 -4.793674 2.195060 0.352369 10.873293 6.541981 2.448379 -5.207813 -4.140491 2.943354 20.591633 -2.241204 1.383983 7.317841 0.000000 0.000000 0.000000 -9.847987 -37.855025 -39.521112 162.973071 -26.893006 115.900408 73.833783 -69.857487 37.248295 0.000000 0.000000 0.000000 -7.125000 0.000000 0.000000 19.830967 -37.218059 28.600443 0.000000 0.000000 0.000000 6.562991 -32.455576 41.001825 -161.316922 -29.022679 -115.123778 -58.707861 26.727459 2.159858 0.000000 0.000000 0.000000 7.125000 0.000000 0.000000 -25.671685 33.157274 -8.173597
5.102845 15.750830 28.021347 -162.547451 -87.619733 -178.815449 0.000000 0.000000 0.000000 0.000000 0.000000 0.000000 0.000000 0.000000 0.000000 0.000000 0.000000 0.000000 0.000000 0.000000 0.000000 0.000000 0.000000 0.000000 19.655679 26.939731 -17.646117 -2.084253 -9.039405 25.918705 -0.416857 -10.560863 -20.228339 -0.020917 0.933826 -2.566823 -1.540210 1.076109 -29.573920 0.643970 1.311367 -4.786347 2.082658 0.336289 10.873014 6.402672 2.486205 -5.133361 -4.078766 3.006909 20.448069 -2.191589 1.410814 7.257938 0.000000 0.000000 0.000000 -9.379557 -37.954970 -38.430381 163.150419 -26.658782 115.980254 74.247814 -70.148016 37.099676 0.000000 0.000000 0.000000 -7.125000 0.000000 0.000000 20.140905 -37.501644 29.083671 0.000000 0.000000 0.000000 6.482652 -32.305374 39.938108 -161.556803 -28.720449 -115.239455 -58.716893 26.523588 2.032269 0.000000 0.000000 0.000000 7.125000 0.000000 0.000000 -25.615542 32.936480 -8.304844
5.099938 15.751058 28.022220 -162.843960 -87.615440 -178.495616 0.000000 0.000000 0.000000 0.000000 0.000000 0.000000 0.000000 0.000000 0.000000 0.000000 0.000000 0.000000 0.000000 0.000000 0.000000 0.000000 0.000000 0.000000 19.631783 26.949928 -17.669156 -2.086426 -9.043781 25.932548 -0.417190 -10.563190 -20.234353 -0.021445 0.945428 -2.598741 -1.426359 1.065485 -29.552152 0.620127 1.266223 -4.772960 1.972331 0.320332 10.883263 6.266576 2.526596 -5.049562 -4.015756 3.073254 20.308068 -2.142198 1.439390 7.197754 0.000000 0.000000 0.000000 -8.873508 -38.039986 -37.434988 163.294435 -26.467889 116.044705 74.612235 -70.350575 36.931266 0.000000 0.000000 0.000000 -7.125000 0.000000 0.000000 20.435589 -37.724119 29.541985 0.000000 0.000000 0.000000 6.388361 -32.166761 39.029668 -161.781159 -28.436192 -115.346838 -58.707600 26.348058 1.956027 0.000000 0.000000 0.000000 7.125000 0.000000 0.000000 -25.570651 32.803938 -8.379130
5.097074 15.751201 28.023006 -163.094716 -87.608600 -178.224150 0.000000 0.000000 0.000000 0.000000 0.000000 0.000000 0.000000 0.000000 0.000000 0.000000 0.000000 0.000000 0.000000 0.000000 0.000000 0.000000 0.000000 0.000000 19.612082 26.958400 -17.688189 -2.088211 -9.047423 25.943971 -0.417908 -10.561674 -20.240155 -0.021803 0.953847 -2.621929 -1.315184 1.056878 -29.538607 0.598521 1.224726 -4.754082 1.867767 0.305912 10.903494 6.130156 2.566735 -4.951251 -3.951400 3.139158 20.168219 -2.092721 1.467948 7.134965 0.000000 0.000000 0.000000 -8.338633 -38.108394 -36.540655 163.406602 -26.318663 116.094611 74.923460 -70.466760 36.740623 0.000000 0.000000 0.000000 -7.125000 0.000000 0.000000 20.713957 -37.879351 29.973689 0.000000 0.000000 0.000000 6.272782 -32.038792 38.260771 -161.986991 -28.173885 -115.444601 -58.692704 26.250284 1.947538 0.000000 0.000000 0.000000 7.125000 0.000000 0.000000 -25.555020 32.788812 -8.383363
5.094281 15.751272 28.023651 -163.278778 -87.597857 -178.025765 0.000000 0.000000 0.000000 0.000000 0.000000 0.000000 0.000000 0.000000 0.000000 0.000000 0.000000 0.000000 0.000000 0.000000 0.000000 0.000000 0.000000 0.000000 19.599405 26.969143 -17.697786 -2.089429 -9.049858 25.951562 -0.418767 -10.558881 -20.246028 -0.022089 0.958932 -2.635751 -1.216922 1.054515 -29.539323 0.579327 1.195362 -4.730662 1.778386 0.296458 10.935006 6.018215 2.602688 -4.817251 -3.897757 3.198960 20.030781 -2.052041 1.494519 7.066855 0.000000 0.000000 0.000000 -7.816599 -38.139906 -35.849384 163.481874 -26.218181 116.127914 75.155077 -70.569677 36.657330 0.000000 0.000000 0.000000 -7.125000 0.000000 0.000000 20.891644 -38.045651 30.251357 0.000000 0.000000 0.000000 6.120734 -31.919976 37.667835 -162.146917 -27.968480 -115.519802 -58.693134 26.227079 1.973034 0.000000 0.000000 0.000000 7.125000 0.000000 0.000000 -25.567912 32.833001 -8.357938
5.091575 15.751256 28.024251 -163.436935 -87.585533 -177.855479 0.000000 0.000000 0.000000 0.000000 0.000000 0.000000 0.000000 0.000000 0.000000 0.000000 0.000000 0.000000 0.000000 0.000000 0.000000 0.000000 0.000000 0.000000 19.589626 26.980149 -17.702817 -2.090295 -9.051590 25.956959 -0.419803 -10.554156 -20.252252 -0.022112 0.959890 -2.638378 -1.121602 1.053951 -29.548996 0.560748 1.169204 -4.704828 1.692781 0.288322 10.973544 5.909611 2.637280 -4.665557 -3.842007 3.255952 19.900632 -2.011844 1.520167 6.997911 0.000000 0.000000 0.000000 -7.293292 -38.155656 -35.238244 163.540110 -26.140267 116.153621 75.282504 -70.620389 36.636472 0.000000 0.000000 0.000000 -7.125000 0.000000 0.000000 20.976206 -38.157507 30.384266 0.000000 0.000000 0.000000 5.962715 -31.807657 37.174127 -162.275274 -27.803163 -115.579898 -58.696330 26.203391 1.976621 0.000000 0.000000 0.000000 7.125000 0.000000 0.000000 -25.572110 32.839255 -8.355301
5.088926 15.751184 28.024824 -163.587125 -87.571700 -177.695943 0.000000 0.000000 0.000000 0.000000 0.000000 0.000000 0.000000 0.000000 0.000000 0.000000 0.000000 0.000000 0.000000 0.000000 0.000000 0.000000 0.000000 0.000000 19.582018 26.991229 -17.703134 -2.090847 -9.052693 25.960395 -0.420933 -10.548429 -20.258480 -0.021969 0.957839 -2.632804 -1.029396 1.055549 -29.566698 0.542370 1.146822 -4.676786 1.610801 0.281793 11.018394 5.804231 2.670190 -4.499962 -3.784615 3.309695 19.781123 -1.972309 1.544535 6.929868 0.000000 0.000000 0.000000 -6.774771 -38.154580 -34.707784 163.580669 -26.085882 116.171490 75.319637 -70.622190 36.676462 0.000000 0.000000 0.000000 -7.125000 0.000000 0.000000 20.976325 -38.227360 30.386105 0.000000 0.000000 0.000000 5.799576 -31.702313 36.768435 -162.372372 -27.677726 -115.625136 -58.700868 26.188155 1.961675 0.000000 0.000000 0.000000 7.125000 0.000000 0.000000 -25.568228 32.813414 -8.371626
5.086276 15.751113 28.025397 -163.767606 -87.556015 -177.511165 0.000000 0.000000 0.000000 0.000000 0.000000 0.000000 0.000000 0.000000 0.000000 0.000000 0.000000 0.000000 0.000000 0.000000 0.000000 0.000000 0.000000 0.000000 19.575644 27.001972 -17.696831 -2.091061 -9.053123 25.961756 -0.422007 -10.543487 -20.263923 -0.021826 0.954330 -2.623135 -0.941734 1.060849 -29.592982 0.523319 1.130779 -4.646276 1.533309 0.278068 11.070032 5.702889 2.700127 -4.324494 -3.726102 3.358110 19.683434 -1.934064 1.566379 6.866986 0.000000 0.000000 0.000000 -6.276443 -38.128653 -34.286089 163.596211 -26.065041 116.178366 75.268143 -70.566327 36.793918 0.000000 0.000000 0.000000 -7.125000 0.000000 0.000000 20.883721 -38.269616 30.244514 0.000000 0.000000 0.000000 5.631557 -31.607345 36.454455 -162.428522 -27.604960 -115.651134 -58.703947 26.204556 1.929733 0.000000 0.000000 0.000000 7.125000 0.000000 0.000000 -25.554978 32.758124 -8.404500
